<svg width="35" height="35" viewBox="0 0 35 35" fill="none" xmlns="http://www.w3.org/2000/svg">
<path d="M19.0466 3.28128C18.6363 2.87119 18.08 2.64081 17.5 2.64081C16.92 2.64081 16.3637 2.87119 15.9534 3.28128L1.41313 17.8194C1.31143 17.9211 1.23077 18.0418 1.17573 18.1747C1.1207 18.3076 1.09237 18.45 1.09237 18.5938C1.09237 18.7376 1.1207 18.88 1.17573 19.0129C1.23077 19.1457 1.31143 19.2665 1.41313 19.3682C1.6185 19.5735 1.89705 19.6889 2.1875 19.6889C2.33132 19.6889 2.47372 19.6606 2.60659 19.6055C2.73946 19.5505 2.86018 19.4698 2.96188 19.3682L4.375 17.9528V29.5313C4.375 30.4015 4.7207 31.2361 5.33606 31.8515C5.95141 32.4668 6.78601 32.8125 7.65625 32.8125H27.3438C28.214 32.8125 29.0486 32.4668 29.6639 31.8515C30.2793 31.2361 30.625 30.4015 30.625 29.5313V17.9528L32.0381 19.3682C32.2435 19.5735 32.5221 19.6889 32.8125 19.6889C33.1029 19.6889 33.3815 19.5735 33.5869 19.3682C33.7923 19.1628 33.9076 18.8842 33.9076 18.5938C33.9076 18.3033 33.7923 18.0248 33.5869 17.8194L28.4375 12.6722V5.46878C28.4375 5.1787 28.3223 4.9005 28.1171 4.69538C27.912 4.49026 27.6338 4.37503 27.3438 4.37503H25.1562C24.8662 4.37503 24.588 4.49026 24.3829 4.69538C24.1777 4.9005 24.0625 5.1787 24.0625 5.46878V8.29722L19.0466 3.28128ZM28.4375 15.7653V29.5313C28.4375 29.8214 28.3223 30.0996 28.1171 30.3047C27.912 30.5098 27.6338 30.625 27.3438 30.625H7.65625C7.36617 30.625 7.08797 30.5098 6.88285 30.3047C6.67773 30.0996 6.5625 29.8214 6.5625 29.5313V15.7653L17.5 4.82784L28.4375 15.7653Z" fill="white"/>
</svg>
