<?xml version="1.0" encoding="UTF-8"?>
<svg xmlns="http://www.w3.org/2000/svg" xmlns:xlink="http://www.w3.org/1999/xlink" width="35px" height="35px" viewBox="0 0 35 35" version="1.1">
<g id="surface1">
<path style=" stroke:none;fill-rule:nonzero;fill:rgb(0%,0%,0%);fill-opacity:1;" d="M 17.5 17.5 C 21.125 17.5 24.0625 14.5625 24.0625 10.9375 C 24.0625 7.3125 21.125 4.375 17.5 4.375 C 13.875 4.375 10.9375 7.3125 10.9375 10.9375 C 10.9375 14.5625 13.875 17.5 17.5 17.5 M 21.875 10.9375 C 21.875 13.355469 19.917969 15.3125 17.5 15.3125 C 15.082031 15.3125 13.125 13.355469 13.125 10.9375 C 13.125 8.519531 15.082031 6.5625 17.5 6.5625 C 19.917969 6.5625 21.875 8.519531 21.875 10.9375 M 30.625 28.4375 C 30.625 30.625 28.4375 30.625 28.4375 30.625 L 6.5625 30.625 C 6.5625 30.625 4.375 30.625 4.375 28.4375 C 4.375 26.25 6.5625 19.6875 17.5 19.6875 C 28.4375 19.6875 30.625 26.25 30.625 28.4375 M 28.4375 28.429688 C 28.433594 27.890625 28.101562 26.273438 26.617188 24.789062 C 25.191406 23.363281 22.507812 21.875 17.5 21.875 C 12.492188 21.875 9.808594 23.363281 8.382812 24.789062 C 6.898438 26.273438 6.566406 27.890625 6.5625 28.429688 Z M 28.4375 28.429688 "/>
</g>
</svg>
