<svg width="48" height="48" viewBox="0 0 48 48" fill="none" xmlns="http://www.w3.org/2000/svg">
<g clip-path="url(#clip0_37_72)">
<path d="M32 32L24 24M24 24L16 32M24 24V42M40.78 36.78C42.7307 35.7165 44.2717 34.0338 45.1598 31.9972C46.0479 29.9607 46.2325 27.6865 45.6845 25.5334C45.1364 23.3803 43.887 21.471 42.1334 20.1069C40.3798 18.7428 38.2218 18.0015 36 18H33.48C32.8747 15.6585 31.7464 13.4847 30.1799 11.642C28.6135 9.7993 26.6497 8.3357 24.4362 7.36121C22.2227 6.38673 19.8171 5.92672 17.4003 6.01576C14.9834 6.10481 12.6182 6.7406 10.4824 7.87533C8.34662 9.01006 6.49587 10.6142 5.06929 12.5672C3.64271 14.5201 2.67742 16.7711 2.246 19.1508C1.81458 21.5305 1.92825 23.9771 2.57847 26.3065C3.22869 28.636 4.39853 30.7877 6.00004 32.6" stroke="#BDBDBD" stroke-width="4" stroke-linecap="round" stroke-linejoin="round"/>
</g>
<defs>
<clipPath id="clip0_37_72">
<rect width="48" height="48" fill="white"/>
</clipPath>
</defs>
</svg>
